<svg width="25" height="24" viewBox="0 0 25 24" fill="none" xmlns="http://www.w3.org/2000/svg">
<path d="M1.15426 7.72188H5.99226V23.2619H1.15426V7.72188ZM3.57368 0C5.12044 0 6.37405 1.2553 6.37405 2.79865C6.37405 4.34456 5.12044 5.60157 3.57368 5.60157C2.02266 5.60157 0.769043 4.34456 0.769043 2.79865C0.769895 1.25445 2.02266 0 3.57368 0Z" fill="#474747"/>
<path d="M9.02246 7.72163H13.6559V9.84704H13.719C14.365 8.62411 15.9407 7.33643 18.2928 7.33643C23.1828 7.33643 24.0853 10.5527 24.0853 14.7379V23.2608H19.2583V15.706C19.2583 13.9027 19.2234 11.5847 16.7477 11.5847C14.2337 11.5847 13.8503 13.5473 13.8503 15.5739V23.2608H9.02246V7.72163Z" fill="#474747"/>
</svg>
